<svg version="1.1" viewBox="0.0 0.0 961.3753280839895 160.1233595800525" fill="none" stroke="none" stroke-linecap="square" stroke-miterlimit="10" xmlns:xlink="http://www.w3.org/1999/xlink" xmlns="http://www.w3.org/2000/svg"><clipPath id="p.0"><path d="m0 0l961.3753 0l0 160.12335l-961.3753 0l0 -160.12335z" clip-rule="nonzero"/></clipPath><g clip-path="url(#p.0)"><path fill="#000000" fill-opacity="0.0" d="m0 0l961.3753 0l0 160.12335l-961.3753 0z" fill-rule="evenodd"/><path fill="#000000" fill-opacity="0.0" d="m587.18176 -48.0l474.51965 0l0 96.72441l-474.51965 0z" fill-rule="evenodd"/><path fill="#31b74a" d="m714.61926 84.62187q0 3.59375 -1.234375 7.71875q-1.234375 4.109375 -4.046875 7.625q-2.796875 3.515625 -7.296875 5.875q-4.484375 2.359375 -11.0 2.359375l-73.890625 0q-2.109375 0 -3.90625 -0.75q-1.796875 -0.75 -3.109375 -2.0625q-1.296875 -1.3125 -2.046875 -3.109375q-0.75 -1.796875 -0.75 -3.890625l0 -87.734375q0 -2.03125 0.75 -3.828125q0.75 -1.796875 2.046875 -3.140625q1.3125 -1.34375 3.109375 -2.09375q1.796875 -0.75 3.90625 -0.75l65.125 0q3.59375 0 7.703125 1.28125q4.125 1.265625 7.671875 4.078125q3.5625 2.796875 5.921875 7.296875q2.359375 4.484375 2.359375 11.0l0 3.671875q0 5.15625 -1.71875 11.109375q-1.71875 5.953125 -5.53125 11.28125q3.28125 2.015625 6.15625 4.859375q2.890625 2.84375 5.0625 6.59375q2.171875 3.734375 3.4375 8.453125q1.28125 4.71875 1.28125 10.40625l0 3.75zm-19.46875 -3.75q0 -3.8125 -1.203125 -6.84375q-1.1875 -3.03125 -3.359375 -5.203125q-2.171875 -2.171875 -5.25 -3.328125q-3.0625 -1.171875 -6.875 -1.171875l-43.875 0l0 -19.609375l35.109375 0q3.828125 0 6.890625 -1.15625q3.078125 -1.171875 5.234375 -3.34375q2.171875 -2.171875 3.328125 -5.203125q1.171875 -3.03125 1.171875 -6.84375l0 -3.671875q0 -4.1875 -4.046875 -4.1875l-55.46875 0l0 68.421875l64.234375 0q0.515625 0 1.265625 -0.0625q0.75 -0.078125 1.34375 -0.453125q0.609375 -0.375 1.046875 -1.265625q0.453125 -0.90625 0.453125 -2.484375l0 -3.59375zm124.66443 -16.546875l-61.46875 0l0 -19.609375l61.46875 0l0 19.609375zm8.75 43.875l-70.21875 0q-4.046875 0 -8.84375 -1.421875q-4.78125 -1.421875 -8.859375 -4.671875q-4.078125 -3.265625 -6.8125 -8.46875q-2.734375 -5.203125 -2.734375 -12.765625l0 -70.21875q0 -2.03125 0.75 -3.828125q0.75 -1.796875 2.046875 -3.140625q1.3125 -1.34375 3.109375 -2.09375q1.796875 -0.75 3.890625 -0.75l87.671875 0l0 19.46875l-78.0 0l0 60.5625q0 3.8125 2.015625 5.84375q2.015625 2.015625 5.90625 2.015625l70.078125 0l0 19.46875zm126.085266 -71.28125q0 6.671875 -1.65625 11.921875q-1.640625 5.234375 -4.453125 9.234375q-2.796875 4.0 -6.46875 6.859375q-3.671875 2.84375 -7.6875 4.671875q-4.0 1.828125 -8.078125 2.65625q-4.078125 0.828125 -7.671875 0.828125l40.65625 35.109375l-30.09375 0l-40.578125 -35.109375l-14.0 0l0 -19.46875l44.015625 0q3.671875 -0.296875 6.703125 -1.53125q3.03125 -1.234375 5.234375 -3.328125q2.21875 -2.109375 3.40625 -5.0625q1.203125 -2.953125 1.203125 -6.78125l0 -12.265625q0 -1.65625 -0.421875 -2.515625q-0.40625 -0.859375 -1.046875 -1.265625q-0.625 -0.421875 -1.34375 -0.484375q-0.703125 -0.078125 -1.3125 -0.078125l-64.234375 0l0 87.890625l-19.453125 0l0 -97.546875q0 -2.03125 0.734375 -3.828125q0.75 -1.796875 2.0625 -3.140625q1.3125 -1.34375 3.109375 -2.09375q1.796875 -0.75 3.890625 -0.75l73.890625 0q6.515625 0 11.0 2.359375q4.5 2.359375 7.3125 5.921875q2.8125 3.546875 4.046875 7.671875q1.234375 4.109375 1.234375 7.703125l0 12.421875z" fill-rule="nonzero"/><path fill="#000000" fill-opacity="0.0" d="m-12.408136 -47.385826l678.3937 0l0 96.72441l-678.3937 0z" fill-rule="evenodd"/><path fill="#434343" d="m110.16999 37.392296q0 6.65625 -1.6875 11.90625q-1.6875 5.234375 -4.453125 9.25q-2.765625 4.0 -6.484375 6.84375q-3.703125 2.84375 -7.671875 4.6875q-3.96875 1.828125 -8.046875 2.65625q-4.078125 0.8125 -7.671875 0.8125l-7.859375 0l0 35.265625l-19.609379 0l0 -35.265625l-7.796875 0q-3.59375 0 -7.671873 -0.8125q-4.078125 -0.828125 -8.09375 -2.65625q-4.0 -1.84375 -7.671875 -4.6875q-3.65625 -2.84375 -6.46875 -6.84375q-2.8125 -4.015625 -4.5 -9.28125q-1.671875 -5.28125 -1.671875 -11.875l0 -35.9375l19.453125 0l0 35.9375q0 3.8125 1.203125 6.84375q1.203125 3.03125 3.375 5.203125q2.171875 2.171875 5.265623 3.34375q3.109375 1.15625 6.9375 1.15625l35.10938 0q2.765625 -0.453125 5.6875 -1.15625q2.921875 -0.71875 5.3125 -2.4375q2.40625 -1.71875 3.96875 -4.78125q1.578125 -3.078125 1.578125 -8.171875l0 -35.9375l19.46875 0l0 35.9375zm122.326 71.421875l-19.46875 0l0 -26.359375l-68.421875 0l0 26.359375l-19.468742 0l0 -53.6875q0 -11.75 4.0468674 -21.625q4.046875 -9.890625 11.234375 -17.0q7.1875 -7.109376 16.984375 -11.078125q9.8125 -3.9687502 21.421875 -3.9687502l43.859375 0q2.03125 0 3.828125 0.75q1.796875 0.75 3.140625 2.0937502q1.34375 1.34375 2.09375 3.140625q0.75 1.7968745 0.75 3.8281245l0 97.546875zm-87.890625 -45.8125l68.421875 0l0 -42.078125l-34.203125 0q-0.90625 0 -3.796875 0.265625q-2.875 0.25 -6.65625 1.296875q-3.78125 1.046875 -7.96875 3.21875q-4.1875 2.171875 -7.71875 6.0q-3.515625 3.8125 -5.796875 9.546875q-2.28125 5.71875 -2.28125 13.875l0 7.875zm202.37001 -55.703125q1.125 2.6093745 0.671875 5.4999995q-0.453125 2.875 -2.40625 4.906251l-64.234375 71.640625l65.8125 0l0 19.46875l-87.75 0q-2.84375 0 -5.28125 -1.609375q-2.421875 -1.609375 -3.625 -4.234375q-1.265625 -2.609375 -0.78125 -5.453125q0.484375 -2.859375 2.359375 -4.953125l64.390625 -71.640625l-65.96875 0l0 -19.46875l87.90625 0q2.84375 0 5.265625 1.609375q2.4375 1.6093752 3.640625 4.234375zm105.78732 57.640625l-61.46875 0l0 -19.609375l61.46875 0l0 19.609375zm8.75 43.875l-70.21875 0q-4.046875 0 -8.84375 -1.421875q-4.78125 -1.421875 -8.859375 -4.671875q-4.078125 -3.265625 -6.8125 -8.46875q-2.734375 -5.203125 -2.734375 -12.765625l0 -70.21875q0 -2.03125 0.75 -3.8281245q0.75 -1.796875 2.046875 -3.140625q1.3125 -1.3437502 3.109375 -2.0937502q1.796875 -0.75 3.890625 -0.75l87.671875 0l0 19.46875l-78.0 0l0 60.5625q0 3.8125 2.015625 5.84375q2.015625 2.015625 5.90625 2.015625l70.078125 0l0 19.46875zm126.085266 -71.28125q0 6.671875 -1.65625 11.921875q-1.640625 5.234375 -4.453125 9.234375q-2.796875 4.0 -6.46875 6.859375q-3.671875 2.84375 -7.6875 4.671875q-4.0 1.828125 -8.078125 2.65625q-4.078125 0.828125 -7.671875 0.828125l40.65625 35.109375l-30.09375 0l-40.578125 -35.109375l-14.0 0l0 -19.46875l44.015625 0q3.671875 -0.296875 6.703125 -1.53125q3.03125 -1.234375 5.234375 -3.328125q2.21875 -2.109375 3.40625 -5.0625q1.203125 -2.953125 1.203125 -6.78125l0 -12.265625q0 -1.65625 -0.421875 -2.515625q-0.40625 -0.859375 -1.046875 -1.265625q-0.625 -0.421875 -1.34375 -0.484375q-0.703125 -0.078125 -1.3125 -0.078125l-64.234375 0l0 87.890625l-19.453125 0l0 -97.546875q0 -2.03125 0.734375 -3.8281245q0.75 -1.796875 2.0625 -3.140625q1.3125 -1.3437502 3.109375 -2.0937502q1.796875 -0.75 3.890625 -0.75l73.890625 0q6.515625 0 11.0 2.359375q4.5 2.3593752 7.3125 5.921875q2.8125 3.546875 4.046875 7.671876q1.234375 4.109375 1.234375 7.703125l0 12.421875z" fill-rule="nonzero"/><path fill="#000000" fill-opacity="0.0" d="m267.9679 102.04684l725.8583 0l0 52.409447l-725.8583 0z" fill-rule="evenodd"/><path fill="#434343" d="m279.74915 157.12683l0 -27.890625q0 -2.734375 1.96875 -4.703125q1.96875 -1.96875 4.703125 -1.96875l21.171875 0q2.78125 0 4.75 1.96875q1.96875 1.96875 1.96875 4.703125l0 27.890625l-6.390625 0l0 -11.609375l-21.828125 0l0 11.609375l-6.34375 0zm6.34375 -17.953125l21.828125 0l0 -8.546875q0 -1.34375 -0.1875 -1.5q-0.1875 -0.171875 -1.484375 -0.171875l-18.484375 0q-1.34375 0 -1.515625 0.171875q-0.15625 0.15625 -0.15625 1.5l0 8.546875zm33.596832 17.953125l0 -27.84375l21.640625 0q2.734375 0 4.671875 1.953125q1.953125 1.9375 1.953125 4.671875l0 21.21875l-6.28125 0l0 -19.875q0 -1.34375 -0.171875 -1.5q-0.171875 -0.171875 -1.515625 -0.171875l-12.328125 0q-1.34375 0 -1.515625 0.171875q-0.171875 0.15625 -0.171875 1.5l0 19.875l-6.28125 0zm33.3143 0l0 -27.84375l6.28125 0l0 27.84375l-6.28125 0zm0 -30.625l0 -6.328125l6.28125 0l0 6.328125l-6.28125 0zm10.749786 30.625l0 -27.84375l34.515625 0q2.734375 0 4.671875 1.953125q1.953125 1.9375 1.953125 4.671875l0 21.21875l-6.25 0l0 -19.875q0 -1.34375 -0.1875 -1.5q-0.1875 -0.171875 -1.484375 -0.171875l-7.78125 0q-1.34375 0 -1.515625 0.171875q-0.15625 0.15625 -0.15625 1.5l0 19.875l-6.34375 0l0 -19.875q0 -1.34375 -0.171875 -1.5q-0.15625 -0.171875 -1.5 -0.171875l-7.78125 0q-1.34375 0 -1.515625 0.171875q-0.171875 0.15625 -0.171875 1.5l0 19.875l-6.28125 0zm52.467346 0q-2.734375 0 -4.6875 -1.9375q-1.9375 -1.953125 -1.9375 -4.6875l0 -10.46875l21.984375 0l0 -2.78125q0 -1.34375 -0.171875 -1.5q-0.171875 -0.171875 -1.515625 -0.171875l-20.296875 0l0 -6.296875l21.640625 0q2.734375 0 4.671875 1.953125q1.953125 1.9375 1.953125 4.671875l0 21.21875l-21.640625 0zm1.34375 -6.28125l14.015625 0l0 -5.140625l-15.703125 0l0 3.453125q0 1.34375 0.171875 1.515625q0.171875 0.171875 1.515625 0.171875zm30.912323 6.28125q-2.734375 0 -4.6875 -1.9375q-1.9375 -1.953125 -1.9375 -4.6875l0 -30.390625l6.328125 0l0 29.046875q0 1.34375 0.171875 1.515625q0.171875 0.171875 1.46875 0.171875l4.265625 0l0 6.28125l-5.609375 0zm23.89856 0l0 -34.515625l27.84375 0q2.78125 0 4.75 2.0q1.96875 1.984375 1.96875 4.671875l0 9.3125q0 2.734375 -1.96875 4.703125q-1.96875 1.96875 -4.75 1.96875l-21.5 0.046875l0 11.8125l-6.34375 0zm8.015625 -18.234375l18.484375 0q1.296875 0 1.484375 -0.140625q0.1875 -0.15625 0.1875 -1.5l0 -6.625q0 -1.34375 -0.1875 -1.5q-0.1875 -0.171875 -1.484375 -0.171875l-18.484375 0q-1.34375 0 -1.515625 0.171875q-0.15625 0.15625 -0.15625 1.5l0 6.625q0 1.34375 0.15625 1.5q0.171875 0.140625 1.515625 0.140625zm29.764954 18.234375l0 -21.21875q0 -2.734375 1.9375 -4.671875q1.953125 -1.953125 4.6875 -1.953125l15.453125 0l0 6.296875l-14.109375 0q-1.34375 0 -1.515625 0.171875q-0.171875 0.15625 -0.171875 1.5l0 19.875l-6.28125 0zm31.730164 0q-2.734375 0 -4.6875 -1.9375q-1.9375 -1.953125 -1.9375 -4.6875l0 -14.59375q0 -2.734375 1.9375 -4.671875q1.953125 -1.953125 4.6875 -1.953125l15.015625 0q2.734375 0 4.671875 1.953125q1.953125 1.9375 1.953125 4.671875l0 14.59375q0 2.734375 -1.953125 4.6875q-1.9375 1.9375 -4.671875 1.9375l-15.015625 0zm1.34375 -6.28125l12.328125 0q1.34375 0 1.515625 -0.171875q0.171875 -0.171875 0.171875 -1.515625l0 -11.90625q0 -1.34375 -0.171875 -1.5q-0.171875 -0.171875 -1.515625 -0.171875l-12.328125 0q-1.34375 0 -1.515625 0.171875q-0.171875 0.15625 -0.171875 1.5l0 11.90625q0 1.34375 0.171875 1.515625q0.171875 0.171875 1.515625 0.171875zm30.528564 6.28125q-2.75 0 -4.6875 -1.9375q-1.9375 -1.953125 -1.9375 -4.6875l0 -14.59375q0 -2.734375 1.9375 -4.671875q1.9375 -1.953125 4.6875 -1.953125l15.40625 0l0 -9.109375l6.28125 0l0 36.953125l-21.6875 0zm1.390625 -6.28125l12.328125 0q1.34375 0 1.515625 -0.171875q0.171875 -0.171875 0.171875 -1.515625l0 -11.90625q0 -1.34375 -0.171875 -1.5q-0.171875 -0.171875 -1.515625 -0.171875l-12.328125 0q-1.34375 0 -1.515625 0.171875q-0.171875 0.15625 -0.171875 1.5l0 11.90625q0 1.34375 0.171875 1.515625q0.171875 0.171875 1.515625 0.171875zm30.91095 6.28125q-2.734375 0 -4.6875 -1.9375q-1.9375 -1.953125 -1.9375 -4.6875l0 -21.21875l6.28125 0l0 19.875q0 1.34375 0.171875 1.515625q0.171875 0.171875 1.515625 0.171875l12.328125 0q1.34375 0 1.515625 -0.171875q0.171875 -0.171875 0.171875 -1.515625l0 -19.875l6.28125 0l0 21.21875q0 2.734375 -1.953125 4.6875q-1.9375 1.9375 -4.671875 1.9375l-15.015625 0zm32.162292 0q-2.734375 0 -4.6875 -1.9375q-1.9375 -1.953125 -1.9375 -4.6875l0 -14.59375q0 -2.734375 1.9375 -4.671875q1.953125 -1.953125 4.6875 -1.953125l21.59375 0l0 6.296875l-20.25 0q-1.34375 0 -1.515625 0.171875q-0.171875 0.15625 -0.171875 1.5l0 11.90625q0 1.34375 0.171875 1.515625q0.171875 0.171875 1.515625 0.171875l20.296875 0l0 6.28125l-21.640625 0zm32.20581 0q-2.734375 0 -4.6875 -1.9375q-1.9375 -1.953125 -1.9375 -4.6875l0 -29.765625l6.28125 0l0 8.546875l10.859375 0l0 6.296875l-10.859375 0l0 13.578125q0 1.34375 0.171875 1.515625q0.171875 0.171875 1.515625 0.171875l9.171875 0l0 6.28125l-10.515625 0zm14.448181 0l0 -27.84375l6.28125 0l0 27.84375l-6.28125 0zm0 -30.625l0 -6.328125l6.28125 0l0 6.328125l-6.28125 0zm17.23413 30.625q-2.734375 0 -4.6875 -1.9375q-1.9375 -1.953125 -1.9375 -4.6875l0 -14.59375q0 -2.734375 1.9375 -4.671875q1.953125 -1.953125 4.6875 -1.953125l15.015625 0q2.734375 0 4.671875 1.953125q1.953125 1.9375 1.953125 4.671875l0 14.59375q0 2.734375 -1.953125 4.6875q-1.9375 1.9375 -4.671875 1.9375l-15.015625 0zm1.34375 -6.28125l12.328125 0q1.34375 0 1.515625 -0.171875q0.171875 -0.171875 0.171875 -1.515625l0 -11.90625q0 -1.34375 -0.171875 -1.5q-0.171875 -0.171875 -1.515625 -0.171875l-12.328125 0q-1.34375 0 -1.515625 0.171875q-0.171875 0.15625 -0.171875 1.5l0 11.90625q0 1.34375 0.171875 1.515625q0.171875 0.171875 1.515625 0.171875zm24.187927 6.28125l0 -27.84375l21.640625 0q2.734375 0 4.671875 1.953125q1.953125 1.9375 1.953125 4.671875l0 21.21875l-6.28125 0l0 -19.875q0 -1.34375 -0.171875 -1.5q-0.171875 -0.171875 -1.515625 -0.171875l-12.328125 0q-1.34375 0 -1.515625 0.171875q-0.171875 0.15625 -0.171875 1.5l0 19.875l-6.28125 0zm54.861755 0q-2.734375 0 -4.703125 -1.96875q-1.96875 -1.96875 -1.96875 -4.703125l0 -21.21875q0 -2.734375 1.96875 -4.703125q1.96875 -1.96875 4.703125 -1.96875l27.796875 0l0 6.390625l-26.453125 0q-1.34375 0 -1.515625 0.171875q-0.15625 0.15625 -0.15625 1.5l0 18.4375q0 1.34375 0.15625 1.515625q0.171875 0.15625 1.515625 0.15625l26.453125 0l0 6.390625l-27.796875 0zm38.838867 0q-2.734375 0 -4.6875 -1.9375q-1.9375 -1.953125 -1.9375 -4.6875l0 -14.59375q0 -2.734375 1.9375 -4.671875q1.953125 -1.953125 4.6875 -1.953125l15.015625 0q2.734375 0 4.671875 1.953125q1.953125 1.9375 1.953125 4.671875l0 10.46875l-21.984375 0l0 2.78125q0 1.34375 0.171875 1.515625q0.171875 0.171875 1.515625 0.171875l20.296875 0l0 6.28125l-21.640625 0zm-0.34375 -16.421875l15.703125 0l0 -3.453125q0 -1.34375 -0.171875 -1.5q-0.171875 -0.171875 -1.515625 -0.171875l-12.328125 0q-1.34375 0 -1.515625 0.171875q-0.171875 0.15625 -0.171875 1.5l0 3.453125zm27.07544 16.421875l0 -27.84375l21.640625 0q2.734375 0 4.671875 1.953125q1.953125 1.9375 1.953125 4.671875l0 21.21875l-6.28125 0l0 -19.875q0 -1.34375 -0.171875 -1.5q-0.171875 -0.171875 -1.515625 -0.171875l-12.328125 0q-1.34375 0 -1.515625 0.171875q-0.171875 0.15625 -0.171875 1.5l0 19.875l-6.28125 0zm39.986206 0q-2.734375 0 -4.6875 -1.9375q-1.9375 -1.953125 -1.9375 -4.6875l0 -29.765625l6.28125 0l0 8.546875l10.859375 0l0 6.296875l-10.859375 0l0 13.578125q0 1.34375 0.171875 1.515625q0.171875 0.171875 1.515625 0.171875l9.171875 0l0 6.28125l-10.515625 0zm20.930298 0q-2.734375 0 -4.6875 -1.9375q-1.9375 -1.953125 -1.9375 -4.6875l0 -14.59375q0 -2.734375 1.9375 -4.671875q1.953125 -1.953125 4.6875 -1.953125l15.015625 0q2.734375 0 4.671875 1.953125q1.953125 1.9375 1.953125 4.671875l0 10.46875l-21.984375 0l0 2.78125q0 1.34375 0.171875 1.515625q0.171875 0.171875 1.515625 0.171875l20.296875 0l0 6.28125l-21.640625 0zm-0.34375 -16.421875l15.703125 0l0 -3.453125q0 -1.34375 -0.171875 -1.5q-0.171875 -0.171875 -1.515625 -0.171875l-12.328125 0q-1.34375 0 -1.515625 0.171875q-0.171875 0.15625 -0.171875 1.5l0 3.453125zm26.693726 16.421875l0 -21.21875q0 -2.734375 1.9375 -4.671875q1.953125 -1.953125 4.6875 -1.953125l15.453125 0l0 6.296875l-14.109375 0q-1.34375 0 -1.515625 0.171875q-0.171875 0.15625 -0.171875 1.5l0 19.875l-6.28125 0z" fill-rule="nonzero"/></g></svg>