<svg version="1.1" viewBox="0.0 0.0 294.9790026246719 290.8950131233596" fill="none" stroke="none" stroke-linecap="square" stroke-miterlimit="10" xmlns:xlink="http://www.w3.org/1999/xlink" xmlns="http://www.w3.org/2000/svg"><clipPath id="p.0"><path d="m0 0l294.979 0l0 290.89502l-294.979 0l0 -290.89502z" clip-rule="nonzero"/></clipPath><g clip-path="url(#p.0)"><path fill="#000000" fill-opacity="0.0" d="m0 0l294.979 0l0 290.89502l-294.979 0z" fill-rule="evenodd"/><path fill="#000000" fill-opacity="0.0" d="m10.742892 145.02278l0 0c0 -75.67605 61.34756 -137.02362 137.02362 -137.02362l0 0c36.340927 0 71.19342 14.436377 96.890335 40.133293c25.696915 25.69691 40.133286 60.549404 40.133286 96.89032l0 0c0 75.67607 -61.347565 137.02364 -137.02362 137.02364l0 0c-75.676056 0 -137.02362 -61.347565 -137.02362 -137.02364z" fill-rule="evenodd"/><path stroke="#434343" stroke-width="12.0" stroke-linejoin="round" stroke-linecap="butt" d="m10.742892 145.02278l0 0c0 -75.67605 61.34756 -137.02362 137.02362 -137.02362l0 0c36.340927 0 71.19342 14.436377 96.890335 40.133293c25.696915 25.69691 40.133286 60.549404 40.133286 96.89032l0 0c0 75.67607 -61.347565 137.02364 -137.02362 137.02364l0 0c-75.676056 0 -137.02362 -61.347565 -137.02362 -137.02364z" fill-rule="evenodd"/><path fill="#31b74a" d="m43.892498 145.02278l0 0c0 -57.368027 46.505985 -103.87401 103.87401 -103.87401l0 0c27.549103 0 53.969864 10.943836 73.45003 30.423996c19.480148 19.480156 30.423996 45.900917 30.423996 73.45001l0 0c0 57.368042 -46.50598 103.87402 -103.87402 103.87402l0 0c-57.368027 0 -103.87401 -46.50598 -103.87401 -103.87402z" fill-rule="evenodd"/><path fill="#ffffff" d="m156.82162 203.85222l-132.7891 -130.35019l180.85445 43.7697z" fill-rule="evenodd"/><path fill="#ffffff" d="m94.46982 116.57191l176.87677 -42.285507l-128.49907 128.69183z" fill-rule="evenodd"/><path fill="#ffffff" d="m197.07611 113.250114l-49.513123 173.90234l-49.513123 -173.90271z" fill-rule="evenodd"/></g></svg>